<svg width="28" height="28" viewBox="0 0 28 28" fill="none" xmlns="http://www.w3.org/2000/svg">
<path d="M12.8333 2.3335V4.66683" stroke="white" stroke-width="2.33333" stroke-linecap="round" stroke-linejoin="round"/>
<path d="M5.83325 2.3335V4.66683" stroke="white" stroke-width="2.33333" stroke-linecap="round" stroke-linejoin="round"/>
<path d="M5.83325 3.5H4.66659C4.04775 3.5 3.45425 3.74583 3.01667 4.18342C2.57908 4.621 2.33325 5.21449 2.33325 5.83333V10.5C2.33325 12.3565 3.07075 14.137 4.3835 15.4497C5.69626 16.7625 7.47674 17.5 9.33325 17.5C11.1898 17.5 12.9702 16.7625 14.283 15.4497C15.5958 14.137 16.3333 12.3565 16.3333 10.5V5.83333C16.3333 5.21449 16.0874 4.621 15.6498 4.18342C15.2122 3.74583 14.6188 3.5 13.9999 3.5H12.8333" stroke="white" stroke-width="2.33333" stroke-linecap="round" stroke-linejoin="round"/>
<path d="M9.33325 17.5C9.33325 19.3565 10.0708 21.137 11.3835 22.4497C12.6963 23.7625 14.4767 24.5 16.3333 24.5C18.1898 24.5 19.9702 23.7625 21.283 22.4497C22.5958 21.137 23.3333 19.3565 23.3333 17.5V14" stroke="white" stroke-width="2.33333" stroke-linecap="round" stroke-linejoin="round"/>
<path d="M23.3333 14.0002C24.622 14.0002 25.6667 12.9555 25.6667 11.6668C25.6667 10.3782 24.622 9.3335 23.3333 9.3335C22.0447 9.3335 21 10.3782 21 11.6668C21 12.9555 22.0447 14.0002 23.3333 14.0002Z" stroke="white" stroke-width="2.33333" stroke-linecap="round" stroke-linejoin="round"/>
</svg>
