<svg width="28" height="28" viewBox="0 0 28 28" fill="none" xmlns="http://www.w3.org/2000/svg">
<path d="M25.6666 14.0002H22.7733C22.2634 13.9991 21.7672 14.165 21.3606 14.4726C20.9539 14.7802 20.6592 15.2126 20.5216 15.7035L17.7799 25.4568C17.7622 25.5174 17.7254 25.5706 17.6749 25.6085C17.6244 25.6464 17.563 25.6668 17.4999 25.6668C17.4368 25.6668 17.3754 25.6464 17.3249 25.6085C17.2744 25.5706 17.2376 25.5174 17.2199 25.4568L10.7799 2.5435C10.7622 2.48291 10.7254 2.42969 10.6749 2.39183C10.6244 2.35396 10.563 2.3335 10.4999 2.3335C10.4368 2.3335 10.3754 2.35396 10.3249 2.39183C10.2744 2.42969 10.2376 2.48291 10.2199 2.5435L7.47825 12.2968C7.34113 12.7858 7.0482 13.2168 6.64393 13.5242C6.23966 13.8316 5.74612 13.9987 5.23825 14.0002H2.33325" stroke="white" stroke-width="2.33333" stroke-linecap="round" stroke-linejoin="round"/>
</svg>
